<?xml version="1.0" encoding="utf-8"?>
<!-- Generator: Adobe Illustrator 16.0.0, SVG Export Plug-In . SVG Version: 6.00 Build 0)  -->
<!DOCTYPE svg PUBLIC "-//W3C//DTD SVG 1.1//EN" "http://www.w3.org/Graphics/SVG/1.1/DTD/svg11.dtd">
<svg version="1.1" id="图层_1" xmlns="http://www.w3.org/2000/svg" xmlns:xlink="http://www.w3.org/1999/xlink" x="0px" y="0px"
	 width="291.533px" height="53.579px" viewBox="0 0 291.533 53.579" enable-background="new 0 0 291.533 53.579"
	 xml:space="preserve">
<g>
	<g>
		<path fill="#329ED8" d="M61.516,1.983V0c-14.793,0-26.79,11.997-26.79,26.787h16.867c0-5.476,4.444-9.919,9.923-9.919v-1.982
			c6.576,0,11.906,5.33,11.906,11.901c0,6.582-5.33,11.912-11.906,11.912c-3.602,0-6.827-1.603-9.011-4.131
			c-1.229,4.386-3.463,8.347-6.447,11.618c4.24,3.379,9.611,5.409,15.458,5.409c13.701,0,24.804-11.104,24.804-24.809
			C86.319,13.093,75.217,1.983,61.516,1.983z"/>
		<g>
			<path fill="#FFFFFF" d="M34.726,26.787c0,5.486-4.443,9.925-9.92,9.925v1.987c-6.579,0-11.908-5.33-11.908-11.912
				c0-6.571,5.329-11.901,11.908-11.901c3.601,0,6.823,1.604,9.009,4.126c1.231-4.38,3.462-8.343,6.447-11.614
				c-4.24-3.382-9.61-5.414-15.456-5.414C11.104,1.983,0,13.093,0,26.792s11.104,24.804,24.806,24.804v1.983
				c14.791,0,26.787-11.992,26.787-26.792H34.726z"/>
			<path fill="#FFFFFF" d="M24.806,53.579"/>
		</g>
	</g>
	<g>
		<path fill="#FFFFFF" d="M138.396,18.844c-6.585,0-11.922,5.336-11.922,11.919c0,6.584,5.337,11.926,11.922,11.926
			s11.921-5.342,11.921-11.926C150.317,24.18,144.981,18.844,138.396,18.844z M138.396,38.321c-4.175,0-7.558-3.385-7.558-7.56
			c0-4.172,3.383-7.552,7.558-7.552c4.174,0,7.556,3.38,7.556,7.552C145.952,34.937,142.57,38.321,138.396,38.321z"/>
		<polygon fill="#FFFFFF" points="231.24,14.929 234.246,14.929 234.246,42.905 238.652,42.956 238.652,11.125 231.24,11.075 		"/>
		<path fill="#FFFFFF" d="M115.952,37.183c-5.766-1.133-9.521-6.722-8.393-12.49c1.131-5.762,6.721-9.521,12.486-8.393
			c2.272,0.446,4.222,1.592,5.693,3.162c1.071-1.139,2.752-2.475,4.161-3.298c-2.219-2.473-5.217-4.285-8.729-4.974
			c-8.613-1.688-16.966,3.927-18.656,12.539c-1.687,8.617,3.928,16.969,12.542,18.658c3.514,0.688,6.974,0.141,9.965-1.311
			c-1.001-1.296-2.074-3.154-2.646-4.654C120.432,37.306,118.21,37.625,115.952,37.183z"/>
		<path fill="#FFFFFF" d="M187.965,42.905h-4.888V29.901c0-2.5-0.353-4.308-1.059-5.427c-0.707-1.119-1.9-1.679-3.575-1.679
			c-1.415,0-2.616,0.709-3.604,2.123c-0.983,1.412-1.477,3.106-1.477,5.078v12.908h-4.888V29.461c0-4.442-1.568-6.665-4.706-6.665
			c-1.458,0-2.66,0.67-3.6,2.005c-0.94,1.337-1.408,3.069-1.408,5.196v12.908h-4.841V19.046h4.841v3.775h0.091
			c1.725-2.889,4.231-4.334,7.526-4.334c1.647,0,3.088,0.454,4.32,1.363c1.236,0.908,1.538,2.102,1.987,3.576
			c1.769-3.293,4.413-4.939,7.921-4.939c5.25,0,7.357,3.24,7.357,9.716V42.905z"/>
		<path fill="#FFFFFF" d="M227.031,42.905h-4.887V29.901c0-2.5-0.354-4.308-1.061-5.427c-0.706-1.119-1.899-1.679-3.574-1.679
			c-1.416,0-2.614,0.709-3.602,2.123c-0.985,1.412-1.479,3.106-1.479,5.078v12.908h-4.887V29.461c0-4.442-1.569-6.665-4.706-6.665
			c-1.46,0-2.659,0.67-3.597,2.005c-0.944,1.337-1.41,3.069-1.41,5.196v12.908h-4.841V19.046h4.841v3.775h0.09
			c1.725-2.889,4.233-4.334,7.526-4.334c1.646,0,3.086,0.454,4.323,1.363c1.233,0.908,1.536,2.102,1.983,3.576
			c1.771-3.293,4.413-4.939,7.923-4.939c5.247,0,7.355,3.24,7.355,9.716V42.905z"/>
		<g>
			<path fill="#FFFFFF" d="M266.067,27.024L266.067,27.024c-0.026-12.722-6.217-15.861-10.903-15.861
				c-4.691,0-10.88,3.14-10.905,15.861l0,0c0,0.012,0,0.022,0,0.035c0,0.012,0,0.021,0,0.033l0,0
				c0.025,12.723,6.684,15.863,10.905,15.863c4.946,0,10.877-3.141,10.903-15.863l0,0c0-0.012,0-0.021,0-0.033
				C266.067,27.047,266.067,27.036,266.067,27.024z M255.164,38.854c-3.741,0-6.34-3.687-6.348-11.794
				c0.008-8.109,2.606-11.795,6.348-11.795c3.739,0,6.337,3.686,6.345,11.795C261.501,35.167,258.903,38.854,255.164,38.854z"/>
			<path fill="#FFFFFF" d="M291.533,27.024h-0.002c-0.022-12.722-6.215-15.861-10.903-15.861c-4.687,0-10.878,3.14-10.902,15.861
				h-0.002c0,0.012,0,0.022,0,0.035c0,0.012,0,0.021,0,0.033h0.002c0.024,12.723,6.681,15.863,10.902,15.863
				c4.949,0,10.881-3.141,10.903-15.863h0.002c0-0.012,0-0.021,0-0.033C291.533,27.047,291.533,27.036,291.533,27.024z
				 M280.628,38.854c-3.739,0-6.338-3.687-6.346-11.794c0.008-8.109,2.606-11.795,6.346-11.795c3.743,0,6.338,3.686,6.346,11.795
				C286.966,35.167,284.371,38.854,280.628,38.854z"/>
		</g>
	</g>
</g>
</svg>
