<?xml version="1.0" encoding="utf-8"?>
<!-- Generator: Adobe Illustrator 21.0.0, SVG Export Plug-In . SVG Version: 6.00 Build 0)  -->
<svg version="1.1" id="图层_1" xmlns="http://www.w3.org/2000/svg" xmlns:xlink="http://www.w3.org/1999/xlink" x="0px" y="0px"
	 viewBox="0 0 165 50.8" style="enable-background:new 0 0 165 50.8;" xml:space="preserve">
<style type="text/css">
	.st0{fill:#329FD9;}
	.st1{fill:#454545;}
	.st2{fill:#646464;}
</style>
<g>
	<path class="st0" d="M34.8,29.9c-3.3,0-6.3-1.2-8.8-3.1c1.7-1.9,3-4.2,3.6-6.7c1.2,1.5,3.1,2.4,5.1,2.4c3.7,0,6.7-3.1,6.7-6.9
		s-3-6.9-6.7-6.9c-2,0-3.9,0.9-5.1,2.4c-0.7-2.5-2-4.8-3.6-6.7c2.4-2,5.4-3.1,8.8-3.1c7.8,0,14,6.4,14,14.4
		C48.9,23.4,42.6,29.9,34.8,29.9L34.8,29.9z"/>
	<path class="st0" d="M29.2,15.5h-9.5C19.7,6.9,26.4,0,34.8,0v9.8C31.7,9.8,29.2,12.3,29.2,15.5L29.2,15.5z"/>
	<path class="st1" d="M14,8.6c-3.7,0-6.7,3.1-6.7,6.9s3,6.9,6.7,6.9c2,0,3.9-0.9,5.1-2.4c0.7,2.5,2,4.8,3.6,6.7
		c-2.4,2-5.4,3.1-8.7,3.1c-7.8,0-14-6.4-14-14.4C0,7.6,6.3,1.1,14,1.1c3.3,0,6.3,1.2,8.7,3.1c-1.7,1.9-3,4.2-3.6,6.7
		C17.9,9.5,16.1,8.6,14,8.6L14,8.6z"/>
	<path class="st1" d="M14,31v-9.8c3.1,0,5.6-2.6,5.6-5.7h9.5C29.2,24.1,22.4,31,14,31L14,31z"/>
	<polygon class="st1" points="132.6,24.8 132.6,8.6 130.9,8.6 130.9,6.4 135.1,6.4 135.1,24.9 	"/>
	<path class="st1" d="M71.2,11.3c-0.8-0.9-1.9-1.6-3.2-1.8c-3.3-0.7-6.4,1.5-7.1,4.9c-0.6,3.3,1.5,6.6,4.7,7.2
		c1.3,0.3,2.5,0.1,3.6-0.4c0.3,0.9,0.9,1.9,1.5,2.7c-1.7,0.8-3.6,1.2-5.6,0.8c-4.9-1-8.1-5.8-7.1-10.8s5.7-8.2,10.6-7.3
		c2,0.4,3.7,1.4,4.9,2.9C72.7,9.8,71.8,10.6,71.2,11.3L71.2,11.3z"/>
	<path class="st1" d="M103.6,24.8v-7.5c0-1.4-0.2-2.5-0.6-3.1s-1.1-1-2-1c-0.8,0-1.5,0.4-2,1.2c-0.6,0.8-0.8,1.8-0.8,2.9v7.5h-2.8
		V17c0-2.6-0.9-3.9-2.7-3.9c-0.8,0-1.5,0.4-2,1.2s-0.8,1.8-0.8,3v7.5h-2.7V11h2.7v2.2H90c1-1.7,2.4-2.5,4.3-2.5
		c0.9,0,1.7,0.3,2.4,0.8c0.7,0.5,0.9,1.2,1.1,2.1c1-1.9,2.5-2.9,4.5-2.9c3,0,4.2,1.9,4.2,5.6v8.5L103.6,24.8L103.6,24.8z"/>
	<path class="st1" d="M125.7,24.8v-7.5c0-1.4-0.2-2.5-0.6-3.1s-1.1-1-2-1c-0.8,0-1.5,0.4-2,1.2c-0.6,0.8-0.8,1.8-0.8,2.9v7.5h-2.8
		V17c0-2.6-0.9-3.9-2.7-3.9c-0.8,0-1.5,0.4-2,1.2s-0.8,1.8-0.8,3v7.5h-2.7V11h2.7v2.2h0.1c1-1.7,2.4-2.5,4.3-2.5
		c0.9,0,1.7,0.3,2.4,0.8c0.7,0.5,0.9,1.2,1.1,2.1c1-1.9,2.5-2.9,4.5-2.9c3,0,4.2,1.9,4.2,5.6v8.5L125.7,24.8L125.7,24.8z"/>
	<path class="st1" d="M78.3,10.9c-3.7,0-6.7,3.1-6.7,6.9s3,6.9,6.7,6.9s6.7-3.1,6.7-6.9C85.1,14,82.1,10.9,78.3,10.9z M78.3,22.2
		c-2.4,0-4.3-2-4.3-4.4s1.9-4.4,4.3-4.4s4.3,2,4.3,4.4C82.6,20.2,80.7,22.2,78.3,22.2z"/>
	<path class="st1" d="M150.6,15.6c0-7.4-3.5-9.2-6.2-9.2s-6.2,1.8-6.2,9.2l0,0l0,0c0,7.4,3.8,9.2,6.2,9.2
		C147.2,24.9,150.6,23,150.6,15.6L150.6,15.6C150.6,15.7,150.6,15.7,150.6,15.6L150.6,15.6L150.6,15.6z M144.4,22.5
		c-2.1,0-3.6-2.1-3.6-6.8s1.5-6.8,3.6-6.8s3.6,2.1,3.6,6.8C148,20.3,146.5,22.5,144.4,22.5z"/>
	<path class="st1" d="M165,15.6c0-7.4-3.5-9.2-6.2-9.2s-6.2,1.8-6.2,9.2l0,0l0,0l0,0l0,0c0,7.4,3.8,9.2,6.2,9.2
		C161.6,24.9,165,23,165,15.6L165,15.6C165,15.7,165,15.7,165,15.6L165,15.6L165,15.6z M158.8,22.5c-2.1,0-3.6-2.1-3.6-6.8
		s1.5-6.8,3.6-6.8s3.6,2.1,3.6,6.8C162.4,20.3,160.9,22.5,158.8,22.5z"/>
</g>
<g>
	<path class="st2" d="M2.8,49.4V43c-0.1,0.1-0.4,0.3-0.8,0.5s-0.7,0.3-1,0.4v-0.9c0.4-0.1,0.8-0.3,1.3-0.5c0.5-0.2,0.8-0.5,1-0.7
		h0.4v7.7H2.8z"/>
	<path class="st2" d="M5.9,45.8c0-1.3,0.2-2.3,0.7-3c0.4-0.7,1.1-1,1.9-1c1.6,0,2.4,1.3,2.4,3.9c0,1.3-0.2,2.3-0.7,2.9
		c-0.5,0.7-1.1,1-1.9,1c-0.8,0-1.4-0.3-1.8-1S5.9,47,5.9,45.8z M6.9,45.8c0,2,0.5,3,1.5,3c1,0,1.5-1,1.5-3.1c0-2.1-0.5-3.2-1.5-3.2
		C7.4,42.5,6.9,43.6,6.9,45.8z"/>
	<path class="st2" d="M11.4,45.8c0-1.3,0.2-2.3,0.7-3c0.4-0.7,1.1-1,1.9-1c1.6,0,2.4,1.3,2.4,3.9c0,1.3-0.2,2.3-0.7,2.9
		c-0.5,0.7-1.1,1-1.9,1c-0.8,0-1.4-0.3-1.8-1S11.4,47,11.4,45.8z M12.3,45.8c0,2,0.5,3,1.5,3c1,0,1.5-1,1.5-3.1
		c0-2.1-0.5-3.2-1.5-3.2C12.9,42.5,12.3,43.6,12.3,45.8z"/>
	<path class="st2" d="M16.8,43.8c0-0.6,0.2-1.1,0.5-1.5s0.8-0.5,1.3-0.5c0.5,0,1,0.2,1.3,0.5s0.5,0.8,0.5,1.4c0,0.6-0.2,1.1-0.5,1.5
		s-0.8,0.6-1.3,0.6c-0.5,0-0.9-0.2-1.3-0.5S16.8,44.3,16.8,43.8z M17.6,43.7c0,0.4,0.1,0.7,0.3,1s0.4,0.3,0.7,0.3
		c0.3,0,0.6-0.1,0.8-0.4c0.2-0.2,0.3-0.6,0.3-1c0-0.4-0.1-0.7-0.3-1c-0.2-0.2-0.4-0.3-0.7-0.3c-0.3,0-0.6,0.1-0.8,0.4
		C17.7,43,17.6,43.3,17.6,43.7z M23.7,41.9l-4.9,7.6H18l4.9-7.6H23.7z M21.3,47.7c0-0.6,0.2-1.1,0.5-1.5c0.3-0.4,0.8-0.6,1.3-0.6
		c0.5,0,1,0.2,1.3,0.5c0.3,0.3,0.5,0.8,0.5,1.4c0,0.6-0.2,1.1-0.5,1.4c-0.3,0.4-0.8,0.6-1.3,0.6c-0.5,0-0.9-0.2-1.3-0.5
		C21.5,48.7,21.3,48.2,21.3,47.7z M22.1,47.6c0,0.4,0.1,0.7,0.3,1c0.2,0.2,0.4,0.3,0.7,0.3c0.3,0,0.6-0.1,0.8-0.4s0.3-0.6,0.3-1
		c0-0.4-0.1-0.7-0.3-1s-0.4-0.3-0.7-0.3c-0.3,0-0.6,0.1-0.8,0.4C22.2,46.9,22.1,47.2,22.1,47.6z"/>
	<path class="st2" d="M33.6,49.1c-0.6,0.3-1.3,0.4-2.1,0.4c-1.1,0-1.9-0.3-2.6-1c-0.6-0.7-1-1.6-1-2.7c0-1.2,0.4-2.2,1.1-2.9
		s1.7-1.1,2.8-1.1c0.7,0,1.3,0.1,1.8,0.3v1c-0.5-0.3-1.1-0.4-1.8-0.4c-0.8,0-1.5,0.3-2.1,0.8C29.2,44,29,44.8,29,45.7
		c0,0.9,0.2,1.6,0.7,2.2c0.5,0.5,1.1,0.8,1.9,0.8c0.7,0,1.4-0.2,2-0.5V49.1z"/>
	<path class="st2" d="M34.2,46.8c0-0.9,0.2-1.6,0.7-2.1c0.5-0.5,1.2-0.8,2-0.8c0.8,0,1.4,0.2,1.9,0.7c0.5,0.5,0.7,1.2,0.7,2.1
		c0,0.9-0.2,1.5-0.7,2.1s-1.2,0.8-2,0.8c-0.8,0-1.5-0.3-1.9-0.8S34.2,47.6,34.2,46.8z M35.2,46.8c0,0.6,0.2,1.1,0.5,1.5
		s0.7,0.5,1.3,0.5c0.5,0,1-0.2,1.3-0.5c0.3-0.3,0.4-0.9,0.4-1.5c0-0.7-0.1-1.2-0.4-1.5s-0.7-0.5-1.3-0.5c-0.5,0-1,0.2-1.3,0.6
		S35.2,46.1,35.2,46.8z"/>
	<path class="st2" d="M48.3,49.4h-1v-3.1c0-0.6-0.1-1-0.3-1.3c-0.2-0.3-0.5-0.4-0.9-0.4c-0.4,0-0.7,0.2-0.9,0.5s-0.4,0.7-0.4,1.2
		v3.1h-1v-3.2c0-1-0.4-1.5-1.2-1.5c-0.4,0-0.7,0.2-0.9,0.5s-0.4,0.7-0.4,1.2v3.1h-1V44h1v0.9h0c0.4-0.7,0.9-1,1.7-1
		c0.4,0,0.7,0.1,1,0.3s0.5,0.5,0.6,0.8c0.4-0.7,1-1.1,1.8-1.1c1.2,0,1.8,0.7,1.8,2.2V49.4z"/>
	<path class="st2" d="M57.3,49.4h-1v-3.1c0-0.6-0.1-1-0.3-1.3c-0.2-0.3-0.5-0.4-0.9-0.4c-0.4,0-0.7,0.2-0.9,0.5s-0.4,0.7-0.4,1.2
		v3.1h-1v-3.2c0-1-0.4-1.5-1.2-1.5c-0.4,0-0.7,0.2-0.9,0.5s-0.4,0.7-0.4,1.2v3.1h-1V44h1v0.9h0c0.4-0.7,0.9-1,1.7-1
		c0.4,0,0.7,0.1,1,0.3s0.5,0.5,0.6,0.8c0.4-0.7,1-1.1,1.8-1.1c1.2,0,1.8,0.7,1.8,2.2V49.4z"/>
	<path class="st2" d="M62.9,49.4h-1v-0.8h0c-0.4,0.7-0.9,1-1.7,1c-1.3,0-1.9-0.8-1.9-2.3V44h0.9v3.1c0,1.1,0.4,1.6,1.3,1.6
		c0.4,0,0.8-0.2,1-0.5c0.3-0.3,0.4-0.7,0.4-1.2V44h1V49.4z"/>
	<path class="st2" d="M68.8,49.4h-1v-3.1c0-1.1-0.4-1.7-1.2-1.7c-0.4,0-0.8,0.2-1,0.5s-0.4,0.7-0.4,1.2v3.1h-1V44h1v0.9h0
		c0.4-0.7,1-1,1.8-1c0.6,0,1,0.2,1.4,0.6c0.3,0.4,0.5,0.9,0.5,1.7V49.4z"/>
	<path class="st2" d="M69.9,42.1c0-0.2,0.1-0.3,0.2-0.4c0.1-0.1,0.3-0.2,0.4-0.2c0.2,0,0.3,0.1,0.4,0.2s0.2,0.3,0.2,0.4
		c0,0.2-0.1,0.3-0.2,0.4c-0.1,0.1-0.3,0.2-0.4,0.2s-0.3-0.1-0.4-0.2C70,42.4,69.9,42.3,69.9,42.1z M70,49.4V44h1v5.4H70z"/>
	<path class="st2" d="M76,49.2c-0.4,0.2-0.9,0.4-1.5,0.4c-0.8,0-1.4-0.3-1.9-0.8s-0.7-1.2-0.7-1.9c0-0.9,0.3-1.6,0.8-2.1
		c0.5-0.5,1.2-0.8,2.1-0.8c0.5,0,0.9,0.1,1.3,0.3v0.9c-0.4-0.3-0.8-0.4-1.3-0.4c-0.5,0-1,0.2-1.3,0.6c-0.3,0.4-0.5,0.9-0.5,1.5
		c0,0.6,0.2,1.1,0.5,1.5s0.8,0.5,1.3,0.5c0.5,0,0.9-0.2,1.3-0.5V49.2z"/>
	<path class="st2" d="M77,44.4c0.5-0.3,1.2-0.5,1.9-0.5c1.3,0,2,0.7,2,2.1v3.5h-0.9v-0.8h0c-0.4,0.6-0.9,1-1.7,1
		c-0.5,0-0.9-0.1-1.3-0.4s-0.5-0.7-0.5-1.1c0-1,0.6-1.6,1.8-1.8l1.6-0.2c0-0.9-0.4-1.3-1.1-1.3c-0.6,0-1.2,0.2-1.8,0.7V44.4z
		 M78.6,46.9c-0.4,0.1-0.7,0.2-0.9,0.3s-0.3,0.4-0.3,0.7c0,0.3,0.1,0.5,0.3,0.6s0.4,0.2,0.7,0.2c0.4,0,0.8-0.1,1-0.4
		s0.4-0.7,0.4-1.1v-0.5L78.6,46.9z"/>
	<path class="st2" d="M84.6,49.4c-0.2,0.1-0.5,0.2-0.8,0.2c-1,0-1.5-0.5-1.5-1.6v-3.1h-0.9V44h0.9v-1.3l1-0.3V44h1.3v0.8h-1.3v2.9
		c0,0.4,0.1,0.6,0.2,0.8c0.1,0.2,0.3,0.2,0.6,0.2c0.2,0,0.4-0.1,0.6-0.2V49.4z"/>
	<path class="st2" d="M85.2,42.1c0-0.2,0.1-0.3,0.2-0.4c0.1-0.1,0.3-0.2,0.4-0.2c0.2,0,0.3,0.1,0.4,0.2c0.1,0.1,0.2,0.3,0.2,0.4
		c0,0.2-0.1,0.3-0.2,0.4c-0.1,0.1-0.3,0.2-0.4,0.2s-0.3-0.1-0.4-0.2C85.3,42.4,85.2,42.3,85.2,42.1z M85.3,49.4V44h1v5.4H85.3z"/>
	<path class="st2" d="M87.2,46.8c0-0.9,0.3-1.6,0.7-2.1c0.5-0.5,1.2-0.8,2-0.8c0.8,0,1.4,0.2,1.9,0.7c0.5,0.5,0.7,1.2,0.7,2.1
		c0,0.9-0.2,1.5-0.7,2.1c-0.5,0.5-1.2,0.8-2,0.8c-0.8,0-1.5-0.3-1.9-0.8C87.5,48.3,87.2,47.6,87.2,46.8z M88.2,46.8
		c0,0.6,0.2,1.1,0.5,1.5s0.7,0.5,1.3,0.5c0.5,0,1-0.2,1.3-0.5c0.3-0.3,0.4-0.9,0.4-1.5c0-0.7-0.1-1.2-0.4-1.5
		c-0.3-0.4-0.7-0.5-1.3-0.5c-0.5,0-1,0.2-1.3,0.6S88.2,46.1,88.2,46.8z"/>
	<path class="st2" d="M98.1,49.4h-1v-3.1c0-1.1-0.4-1.7-1.2-1.7c-0.4,0-0.8,0.2-1,0.5s-0.4,0.7-0.4,1.2v3.1h-1V44h1v0.9h0
		c0.4-0.7,1-1,1.8-1c0.6,0,1,0.2,1.4,0.6c0.3,0.4,0.5,0.9,0.5,1.7V49.4z"/>
	<path class="st2" d="M100.2,48.2l-0.8,2.6h-0.7l0.6-2.6H100.2z"/>
	<path class="st2" d="M105.8,49.4V43c-0.2,0.1-0.4,0.3-0.8,0.5c-0.4,0.2-0.7,0.3-1,0.4v-0.9c0.4-0.1,0.8-0.3,1.3-0.5
		c0.5-0.2,0.8-0.5,1-0.7h0.4v7.7H105.8z"/>
	<path class="st2" d="M108.9,45.8c0-1.3,0.2-2.3,0.7-3c0.4-0.7,1.1-1,1.9-1c1.6,0,2.4,1.3,2.4,3.9c0,1.3-0.2,2.3-0.7,2.9
		c-0.5,0.7-1.1,1-1.9,1c-0.8,0-1.4-0.3-1.8-1S108.9,47,108.9,45.8z M109.9,45.8c0,2,0.5,3,1.5,3c1,0,1.5-1,1.5-3.1
		c0-2.1-0.5-3.2-1.5-3.2C110.4,42.5,109.9,43.6,109.9,45.8z"/>
	<path class="st2" d="M114.4,45.8c0-1.3,0.2-2.3,0.7-3c0.4-0.7,1.1-1,1.9-1c1.6,0,2.4,1.3,2.4,3.9c0,1.3-0.2,2.3-0.7,2.9
		c-0.4,0.7-1.1,1-1.9,1c-0.8,0-1.4-0.3-1.8-1C114.6,48,114.4,47,114.4,45.8z M115.4,45.8c0,2,0.5,3,1.5,3c1,0,1.5-1,1.5-3.1
		c0-2.1-0.5-3.2-1.5-3.2C115.9,42.5,115.4,43.6,115.4,45.8z"/>
	<path class="st2" d="M119.9,43.8c0-0.6,0.2-1.1,0.5-1.5c0.3-0.4,0.8-0.5,1.3-0.5c0.5,0,1,0.2,1.3,0.5s0.5,0.8,0.5,1.4
		c0,0.6-0.2,1.1-0.5,1.5s-0.8,0.6-1.3,0.6c-0.5,0-0.9-0.2-1.3-0.5S119.9,44.3,119.9,43.8z M120.6,43.7c0,0.4,0.1,0.7,0.3,1
		c0.2,0.2,0.4,0.3,0.7,0.3c0.3,0,0.6-0.1,0.8-0.4c0.2-0.2,0.3-0.6,0.3-1c0-0.4-0.1-0.7-0.3-1c-0.2-0.2-0.4-0.3-0.7-0.3
		c-0.3,0-0.6,0.1-0.8,0.4C120.7,43,120.6,43.3,120.6,43.7z M126.7,41.9l-4.9,7.6H121l4.9-7.6H126.7z M124.4,47.7
		c0-0.6,0.2-1.1,0.5-1.5c0.3-0.4,0.8-0.6,1.3-0.6c0.5,0,1,0.2,1.3,0.5c0.3,0.3,0.5,0.8,0.5,1.4c0,0.6-0.2,1.1-0.5,1.4
		c-0.3,0.4-0.8,0.6-1.3,0.6c-0.5,0-0.9-0.2-1.3-0.5C124.5,48.7,124.4,48.2,124.4,47.7z M125.1,47.6c0,0.4,0.1,0.7,0.3,1
		c0.2,0.2,0.4,0.3,0.7,0.3c0.3,0,0.6-0.1,0.8-0.4s0.3-0.6,0.3-1c0-0.4-0.1-0.7-0.3-1s-0.4-0.3-0.7-0.3c-0.3,0-0.6,0.1-0.8,0.4
		C125.2,46.9,125.1,47.2,125.1,47.6z"/>
	<path class="st2" d="M131.1,48c0.2,0.2,0.5,0.4,0.9,0.5c0.4,0.1,0.8,0.2,1.1,0.2c1.1,0,1.6-0.4,1.6-1.1c0-0.2-0.1-0.4-0.2-0.6
		c-0.1-0.2-0.3-0.3-0.5-0.4c-0.2-0.1-0.6-0.3-1.1-0.6c-0.8-0.4-1.3-0.7-1.5-1.1c-0.2-0.3-0.4-0.7-0.4-1.1c0-0.6,0.3-1.1,0.8-1.5
		c0.5-0.4,1.1-0.6,1.9-0.6c0.8,0,1.3,0.1,1.7,0.3v1.1c-0.5-0.3-1-0.5-1.7-0.5c-0.5,0-0.8,0.1-1.1,0.3c-0.3,0.2-0.4,0.5-0.4,0.8
		c0,0.3,0.1,0.6,0.3,0.7c0.2,0.2,0.6,0.5,1.3,0.8c0.7,0.4,1.3,0.7,1.6,1.1c0.3,0.4,0.4,0.8,0.4,1.2c0,0.7-0.2,1.2-0.7,1.5
		c-0.5,0.4-1.2,0.5-2,0.5c-0.3,0-0.6,0-1-0.1c-0.4-0.1-0.7-0.2-0.9-0.3V48z"/>
	<path class="st2" d="M141.2,49.4h-1v-0.8h0c-0.4,0.7-0.9,1-1.7,1c-1.3,0-1.9-0.8-1.9-2.3V44h0.9v3.1c0,1.1,0.4,1.6,1.3,1.6
		c0.4,0,0.8-0.2,1-0.5c0.3-0.3,0.4-0.7,0.4-1.2V44h1V49.4z"/>
	<path class="st2" d="M146.2,49.2c-0.4,0.2-0.9,0.4-1.5,0.4c-0.8,0-1.4-0.3-1.9-0.8c-0.5-0.5-0.7-1.2-0.7-1.9c0-0.9,0.3-1.6,0.8-2.1
		c0.5-0.5,1.2-0.8,2.1-0.8c0.5,0,0.9,0.1,1.3,0.3v0.9c-0.4-0.3-0.8-0.4-1.3-0.4c-0.5,0-1,0.2-1.3,0.6c-0.3,0.4-0.5,0.9-0.5,1.5
		c0,0.6,0.2,1.1,0.5,1.5s0.8,0.5,1.3,0.5c0.5,0,0.9-0.2,1.3-0.5V49.2z"/>
	<path class="st2" d="M150.8,49.2c-0.4,0.2-0.9,0.4-1.5,0.4c-0.8,0-1.4-0.3-1.9-0.8c-0.5-0.5-0.7-1.2-0.7-1.9c0-0.9,0.3-1.6,0.8-2.1
		c0.5-0.5,1.2-0.8,2.1-0.8c0.5,0,0.9,0.1,1.3,0.3v0.9c-0.4-0.3-0.8-0.4-1.3-0.4c-0.5,0-1,0.2-1.3,0.6c-0.3,0.4-0.5,0.9-0.5,1.5
		c0,0.6,0.2,1.1,0.5,1.5s0.8,0.5,1.3,0.5c0.5,0,0.9-0.2,1.3-0.5V49.2z"/>
	<path class="st2" d="M156.1,47h-3.8c0,0.6,0.2,1,0.5,1.3c0.3,0.3,0.7,0.5,1.3,0.5c0.6,0,1.2-0.2,1.7-0.6v0.9
		c-0.5,0.3-1.1,0.5-1.9,0.5c-0.8,0-1.4-0.2-1.8-0.7s-0.7-1.2-0.7-2.1c0-0.8,0.2-1.5,0.7-2c0.5-0.5,1.1-0.8,1.8-0.8
		c0.7,0,1.3,0.2,1.7,0.7c0.4,0.5,0.6,1.1,0.6,1.9V47z M155.1,46.2c0-0.5-0.1-0.9-0.3-1.1c-0.2-0.3-0.5-0.4-1-0.4
		c-0.4,0-0.7,0.1-1,0.4c-0.3,0.3-0.5,0.7-0.5,1.1H155.1z"/>
	<path class="st2" d="M156.7,48.3c0.5,0.3,1,0.5,1.6,0.5c0.7,0,1.1-0.2,1.1-0.7c0-0.2-0.1-0.4-0.2-0.5c-0.2-0.1-0.5-0.3-1-0.5
		c-0.6-0.2-1-0.5-1.2-0.7c-0.2-0.2-0.3-0.5-0.3-0.9c0-0.5,0.2-0.9,0.6-1.2c0.4-0.3,0.9-0.4,1.5-0.4c0.5,0,0.9,0.1,1.3,0.2v0.9
		c-0.4-0.3-0.9-0.4-1.4-0.4c-0.3,0-0.6,0.1-0.7,0.2c-0.2,0.1-0.3,0.3-0.3,0.5c0,0.2,0.1,0.4,0.2,0.5s0.4,0.3,0.9,0.5
		c0.6,0.2,1,0.5,1.2,0.7c0.2,0.2,0.3,0.5,0.3,0.9c0,0.5-0.2,0.9-0.6,1.2c-0.4,0.3-0.9,0.4-1.6,0.4c-0.6,0-1-0.1-1.5-0.3V48.3z"/>
	<path class="st2" d="M160.9,48.3c0.5,0.3,1,0.5,1.6,0.5c0.7,0,1.1-0.2,1.1-0.7c0-0.2-0.1-0.4-0.2-0.5c-0.2-0.1-0.5-0.3-1-0.5
		c-0.6-0.2-1-0.5-1.2-0.7c-0.2-0.2-0.3-0.5-0.3-0.9c0-0.5,0.2-0.9,0.6-1.2c0.4-0.3,0.9-0.4,1.5-0.4c0.5,0,0.9,0.1,1.3,0.2v0.9
		c-0.4-0.3-0.9-0.4-1.4-0.4c-0.3,0-0.6,0.1-0.7,0.2c-0.2,0.1-0.3,0.3-0.3,0.5c0,0.2,0.1,0.4,0.2,0.5s0.4,0.3,0.9,0.5
		c0.6,0.2,1,0.5,1.2,0.7c0.2,0.2,0.3,0.5,0.3,0.9c0,0.5-0.2,0.9-0.6,1.2c-0.4,0.3-0.9,0.4-1.6,0.4c-0.6,0-1-0.1-1.5-0.3V48.3z"/>
</g>
</svg>
