<?xml version="1.0" encoding="utf-8"?>
<!-- Generator: Adobe Illustrator 23.0.1, SVG Export Plug-In . SVG Version: 6.00 Build 0)  -->
<svg version="1.1" baseProfile="tiny" id="Isolation_Mode"
	 xmlns="http://www.w3.org/2000/svg" xmlns:xlink="http://www.w3.org/1999/xlink" x="0px" y="0px" viewBox="0 0 82 48"
	 xml:space="preserve">
<g>
	<path fill="#0094D4" d="M58.86,47.86v-4.09c0.18,0,0.36,0.01,0.54,0.01c12.04,0,21.81-9.76,21.81-21.81
		c0-12.04-9.76-21.81-21.81-21.81c-0.18,0-0.36,0.01-0.54,0.01V0.17c-13.17,0-23.85,10.68-23.85,23.85
		C35.02,37.18,45.69,47.86,58.86,47.86z"/>
	<path fill="#0094D4" d="M31.53,24.01c0-7.12,2.9-13.56,7.59-18.21c-3.87-3.49-8.97-5.64-14.59-5.64c-0.18,0-0.36,0.01-0.54,0.01
		V0.17c-13.17,0-23.85,10.68-23.85,23.85s10.68,23.85,23.85,23.85v-4.09c0.18,0,0.36,0.01,0.54,0.01c4.65,0,8.94-1.46,12.48-3.94
		C33.58,35.48,31.53,29.99,31.53,24.01z"/>
</g>
</svg>
