<svg version="1.1" id="图层_1" xmlns="http://www.w3.org/2000/svg" x="0" y="0" viewBox="0 0 165 50.8" xml:space="preserve"><style type="text/css">.st0{fill:#329fd9}.st1{fill:#454545}.st2{fill:#646464}</style><path class="st0" d="M34.8 29.9c-3.3 0-6.3-1.2-8.8-3.1 1.7-1.9 3-4.2 3.6-6.7 1.2 1.5 3.1 2.4 5.1 2.4 3.7 0 6.7-3.1 6.7-6.9s-3-6.9-6.7-6.9c-2 0-3.9.9-5.1 2.4-.7-2.5-2-4.8-3.6-6.7 2.4-2 5.4-3.1 8.8-3.1 7.8 0 14 6.4 14 14.4.1 7.7-6.2 14.2-14 14.2z"/><path class="st0" d="M29.2 15.5h-9.5C19.7 6.9 26.4 0 34.8 0v9.8c-3.1 0-5.6 2.5-5.6 5.7z"/><path class="st1" d="M14 8.6c-3.7 0-6.7 3.1-6.7 6.9s3 6.9 6.7 6.9c2 0 3.9-.9 5.1-2.4.7 2.5 2 4.8 3.6 6.7-2.4 2-5.4 3.1-8.7 3.1-7.8 0-14-6.4-14-14.4C0 7.6 6.3 1.1 14 1.1c3.3 0 6.3 1.2 8.7 3.1-1.7 1.9-3 4.2-3.6 6.7-1.2-1.4-3-2.3-5.1-2.3z"/><path class="st1" d="M14 31v-9.8c3.1 0 5.6-2.6 5.6-5.7h9.5C29.2 24.1 22.4 31 14 31zm118.6-6.2V8.6h-1.7V6.4h4.2v18.5zM71.2 11.3c-.8-.9-1.9-1.6-3.2-1.8-3.3-.7-6.4 1.5-7.1 4.9-.6 3.3 1.5 6.6 4.7 7.2 1.3.3 2.5.1 3.6-.4.3.9.9 1.9 1.5 2.7-1.7.8-3.6 1.2-5.6.8-4.9-1-8.1-5.8-7.1-10.8s5.7-8.2 10.6-7.3c2 .4 3.7 1.4 4.9 2.9-.8.3-1.7 1.1-2.3 1.8zm32.4 13.5v-7.5c0-1.4-.2-2.5-.6-3.1s-1.1-1-2-1c-.8 0-1.5.4-2 1.2-.6.8-.8 1.8-.8 2.9v7.5h-2.8V17c0-2.6-.9-3.9-2.7-3.9-.8 0-1.5.4-2 1.2s-.8 1.8-.8 3v7.5h-2.7V11h2.7v2.2h.1c1-1.7 2.4-2.5 4.3-2.5.9 0 1.7.3 2.4.8s.9 1.2 1.1 2.1c1-1.9 2.5-2.9 4.5-2.9 3 0 4.2 1.9 4.2 5.6v8.5h-2.9zm22.1 0v-7.5c0-1.4-.2-2.5-.6-3.1s-1.1-1-2-1c-.8 0-1.5.4-2 1.2-.6.8-.8 1.8-.8 2.9v7.5h-2.8V17c0-2.6-.9-3.9-2.7-3.9-.8 0-1.5.4-2 1.2s-.8 1.8-.8 3v7.5h-2.7V11h2.7v2.2h.1c1-1.7 2.4-2.5 4.3-2.5.9 0 1.7.3 2.4.8s.9 1.2 1.1 2.1c1-1.9 2.5-2.9 4.5-2.9 3 0 4.2 1.9 4.2 5.6v8.5h-2.9z"/><path class="st1" d="M78.3 10.9c-3.7 0-6.7 3.1-6.7 6.9s3 6.9 6.7 6.9 6.7-3.1 6.7-6.9c.1-3.8-2.9-6.9-6.7-6.9zm0 11.3c-2.4 0-4.3-2-4.3-4.4s1.9-4.4 4.3-4.4 4.3 2 4.3 4.4c0 2.4-1.9 4.4-4.3 4.4zm72.3-6.6c0-7.4-3.5-9.2-6.2-9.2s-6.2 1.8-6.2 9.2c0 7.4 3.8 9.2 6.2 9.2 2.8.1 6.2-1.8 6.2-9.2 0 .1 0 .1 0 0zm-6.2 6.9c-2.1 0-3.6-2.1-3.6-6.8s1.5-6.8 3.6-6.8 3.6 2.1 3.6 6.8c0 4.6-1.5 6.8-3.6 6.8zm20.6-6.9c0-7.4-3.5-9.2-6.2-9.2s-6.2 1.8-6.2 9.2c0 7.4 3.8 9.2 6.2 9.2 2.8.1 6.2-1.8 6.2-9.2 0 .1 0 .1 0 0zm-6.2 6.9c-2.1 0-3.6-2.1-3.6-6.8s1.5-6.8 3.6-6.8 3.6 2.1 3.6 6.8c0 4.6-1.5 6.8-3.6 6.8z"/><path class="st2" d="M2.8 49.4V43c-.1.1-.4.3-.8.5s-.7.3-1 .4V43c.4-.1.8-.3 1.3-.5s.8-.5 1-.7h.4v7.7h-.9zm3.1-3.6c0-1.3.2-2.3.7-3 .4-.7 1.1-1 1.9-1 1.6 0 2.4 1.3 2.4 3.9 0 1.3-.2 2.3-.7 2.9-.5.7-1.1 1-1.9 1-.8 0-1.4-.3-1.8-1s-.6-1.6-.6-2.8zm1 0c0 2 .5 3 1.5 3s1.5-1 1.5-3.1-.5-3.2-1.5-3.2-1.5 1.1-1.5 3.3zm4.5 0c0-1.3.2-2.3.7-3 .4-.7 1.1-1 1.9-1 1.6 0 2.4 1.3 2.4 3.9 0 1.3-.2 2.3-.7 2.9-.5.7-1.1 1-1.9 1-.8 0-1.4-.3-1.8-1s-.6-1.6-.6-2.8zm.9 0c0 2 .5 3 1.5 3s1.5-1 1.5-3.1-.5-3.2-1.5-3.2c-.9 0-1.5 1.1-1.5 3.3zm4.5-2c0-.6.2-1.1.5-1.5s.8-.5 1.3-.5 1 .2 1.3.5.5.8.5 1.4c0 .6-.2 1.1-.5 1.5s-.8.6-1.3.6-.9-.2-1.3-.5-.5-1-.5-1.5zm.8-.1c0 .4.1.7.3 1s.4.3.7.3c.3 0 .6-.1.8-.4.2-.2.3-.6.3-1s-.1-.7-.3-1c-.2-.2-.4-.3-.7-.3-.3 0-.6.1-.8.4-.2.3-.3.6-.3 1zm6.1-1.8l-4.9 7.6H18l4.9-7.6h.8zm-2.4 5.8c0-.6.2-1.1.5-1.5.3-.4.8-.6 1.3-.6s1 .2 1.3.5c.3.3.5.8.5 1.4 0 .6-.2 1.1-.5 1.4-.3.4-.8.6-1.3.6s-.9-.2-1.3-.5c-.3-.3-.5-.8-.5-1.3zm.8-.1c0 .4.1.7.3 1 .2.2.4.3.7.3.3 0 .6-.1.8-.4s.3-.6.3-1-.1-.7-.3-1-.4-.3-.7-.3c-.3 0-.6.1-.8.4-.2.3-.3.6-.3 1zm11.5 1.5c-.6.3-1.3.4-2.1.4-1.1 0-1.9-.3-2.6-1-.6-.7-1-1.6-1-2.7 0-1.2.4-2.2 1.1-2.9s1.7-1.1 2.8-1.1c.7 0 1.3.1 1.8.3v1c-.5-.3-1.1-.4-1.8-.4-.8 0-1.5.3-2.1.8-.5.5-.7 1.3-.7 2.2 0 .9.2 1.6.7 2.2.5.5 1.1.8 1.9.8.7 0 1.4-.2 2-.5v.9zm.6-2.3c0-.9.2-1.6.7-2.1.5-.5 1.2-.8 2-.8s1.4.2 1.9.7c.5.5.7 1.2.7 2.1 0 .9-.2 1.5-.7 2.1s-1.2.8-2 .8-1.5-.3-1.9-.8-.7-1.2-.7-2zm1 0c0 .6.2 1.1.5 1.5s.7.5 1.3.5c.5 0 1-.2 1.3-.5.3-.3.4-.9.4-1.5 0-.7-.1-1.2-.4-1.5s-.7-.5-1.3-.5c-.5 0-1 .2-1.3.6s-.5.7-.5 1.4zm13.1 2.6h-1v-3.1c0-.6-.1-1-.3-1.3-.2-.3-.5-.4-.9-.4s-.7.2-.9.5-.4.7-.4 1.2v3.1h-1v-3.2c0-1-.4-1.5-1.2-1.5-.4 0-.7.2-.9.5s-.4.7-.4 1.2v3.1h-1V44h1v.9c.4-.7.9-1 1.7-1 .4 0 .7.1 1 .3s.5.5.6.8c.4-.7 1-1.1 1.8-1.1 1.2 0 1.8.7 1.8 2.2v3.3zm9 0h-1v-3.1c0-.6-.1-1-.3-1.3-.2-.3-.5-.4-.9-.4s-.7.2-.9.5-.4.7-.4 1.2v3.1h-1v-3.2c0-1-.4-1.5-1.2-1.5-.4 0-.7.2-.9.5s-.4.7-.4 1.2v3.1h-1V44h1v.9c.4-.7.9-1 1.7-1 .4 0 .7.1 1 .3s.5.5.6.8c.4-.7 1-1.1 1.8-1.1 1.2 0 1.8.7 1.8 2.2v3.3zm5.6 0h-1v-.8c-.4.7-.9 1-1.7 1-1.3 0-1.9-.8-1.9-2.3V44h.9v3.1c0 1.1.4 1.6 1.3 1.6.4 0 .8-.2 1-.5.3-.3.4-.7.4-1.2v-3h1v5.4zm5.9 0h-1v-3.1c0-1.1-.4-1.7-1.2-1.7-.4 0-.8.2-1 .5s-.4.7-.4 1.2v3.1h-1V44h1v.9c.4-.7 1-1 1.8-1 .6 0 1 .2 1.4.6.3.4.5.9.5 1.7v3.2zm1.1-7.3c0-.2.1-.3.2-.4.1-.1.3-.2.4-.2.2 0 .3.1.4.2s.2.3.2.4c0 .2-.1.3-.2.4-.1.1-.3.2-.4.2s-.3-.1-.4-.2c-.1-.1-.2-.2-.2-.4zm.1 7.3V44h1v5.4h-1zm6-.2c-.4.2-.9.4-1.5.4-.8 0-1.4-.3-1.9-.8s-.7-1.2-.7-1.9c0-.9.3-1.6.8-2.1s1.2-.8 2.1-.8c.5 0 .9.1 1.3.3v.9c-.4-.3-.8-.4-1.3-.4s-1 .2-1.3.6c-.3.4-.5.9-.5 1.5s.2 1.1.5 1.5.8.5 1.3.5.9-.2 1.3-.5v.8zm1-4.8c.5-.3 1.2-.5 1.9-.5 1.3 0 2 .7 2 2.1v3.5H80v-.8c-.4.6-.9 1-1.7 1-.5 0-.9-.1-1.3-.4s-.5-.7-.5-1.1c0-1 .6-1.6 1.8-1.8l1.6-.2c0-.9-.4-1.3-1.1-1.3-.6 0-1.2.2-1.8.7v-1.2zm1.6 2.5c-.4.1-.7.2-.9.3s-.3.4-.3.7c0 .3.1.5.3.6s.4.2.7.2c.4 0 .8-.1 1-.4s.4-.7.4-1.1v-.5l-1.2.2zm6 2.5c-.2.1-.5.2-.8.2-1 0-1.5-.5-1.5-1.6v-3.1h-.9V44h.9v-1.3l1-.3V44h1.3v.8h-1.3v2.9c0 .4.1.6.2.8.1.2.3.2.6.2.2 0 .4-.1.6-.2v.9zm.6-7.3c0-.2.1-.3.2-.4.1-.1.3-.2.4-.2.2 0 .3.1.4.2.1.1.2.3.2.4 0 .2-.1.3-.2.4-.1.1-.3.2-.4.2s-.3-.1-.4-.2c-.1-.1-.2-.2-.2-.4zm.1 7.3V44h1v5.4h-1zm1.9-2.6c0-.9.3-1.6.7-2.1.5-.5 1.2-.8 2-.8s1.4.2 1.9.7c.5.5.7 1.2.7 2.1 0 .9-.2 1.5-.7 2.1-.5.5-1.2.8-2 .8s-1.5-.3-1.9-.8c-.4-.5-.7-1.2-.7-2zm1 0c0 .6.2 1.1.5 1.5s.7.5 1.3.5c.5 0 1-.2 1.3-.5.3-.3.4-.9.4-1.5 0-.7-.1-1.2-.4-1.5-.3-.4-.7-.5-1.3-.5-.5 0-1 .2-1.3.6s-.5.7-.5 1.4zm9.9 2.6h-1v-3.1c0-1.1-.4-1.7-1.2-1.7-.4 0-.8.2-1 .5s-.4.7-.4 1.2v3.1h-1V44h1v.9c.4-.7 1-1 1.8-1 .6 0 1 .2 1.4.6.3.4.5.9.5 1.7v3.2zm2.1-1.2l-.8 2.6h-.7l.6-2.6h.9zm5.6 1.2V43c-.2.1-.4.3-.8.5s-.7.3-1 .4V43c.4-.1.8-.3 1.3-.5s.8-.5 1-.7h.4v7.7h-.9zm3.1-3.6c0-1.3.2-2.3.7-3 .4-.7 1.1-1 1.9-1 1.6 0 2.4 1.3 2.4 3.9 0 1.3-.2 2.3-.7 2.9-.5.7-1.1 1-1.9 1-.8 0-1.4-.3-1.8-1s-.6-1.6-.6-2.8zm1 0c0 2 .5 3 1.5 3s1.5-1 1.5-3.1-.5-3.2-1.5-3.2-1.5 1.1-1.5 3.3zm4.5 0c0-1.3.2-2.3.7-3 .4-.7 1.1-1 1.9-1 1.6 0 2.4 1.3 2.4 3.9 0 1.3-.2 2.3-.7 2.9-.4.7-1.1 1-1.9 1-.8 0-1.4-.3-1.8-1-.4-.6-.6-1.6-.6-2.8zm1 0c0 2 .5 3 1.5 3s1.5-1 1.5-3.1-.5-3.2-1.5-3.2-1.5 1.1-1.5 3.3zm4.5-2c0-.6.2-1.1.5-1.5.3-.4.8-.5 1.3-.5s1 .2 1.3.5.5.8.5 1.4c0 .6-.2 1.1-.5 1.5s-.8.6-1.3.6-.9-.2-1.3-.5-.5-1-.5-1.5zm.7-.1c0 .4.1.7.3 1 .2.2.4.3.7.3.3 0 .6-.1.8-.4.2-.2.3-.6.3-1s-.1-.7-.3-1c-.2-.2-.4-.3-.7-.3-.3 0-.6.1-.8.4-.2.3-.3.6-.3 1zm6.1-1.8l-4.9 7.6h-.8l4.9-7.6h.8zm-2.3 5.8c0-.6.2-1.1.5-1.5.3-.4.8-.6 1.3-.6s1 .2 1.3.5c.3.3.5.8.5 1.4 0 .6-.2 1.1-.5 1.4-.3.4-.8.6-1.3.6s-.9-.2-1.3-.5-.5-.8-.5-1.3zm.7-.1c0 .4.1.7.3 1 .2.2.4.3.7.3.3 0 .6-.1.8-.4s.3-.6.3-1-.1-.7-.3-1-.4-.3-.7-.3c-.3 0-.6.1-.8.4-.2.3-.3.6-.3 1zm6 .4c.2.2.5.4.9.5.4.1.8.2 1.1.2 1.1 0 1.6-.4 1.6-1.1 0-.2-.1-.4-.2-.6-.1-.2-.3-.3-.5-.4-.2-.1-.6-.3-1.1-.6-.8-.4-1.3-.7-1.5-1.1-.2-.3-.4-.7-.4-1.1 0-.6.3-1.1.8-1.5.5-.4 1.1-.6 1.9-.6.8 0 1.3.1 1.7.3v1.1c-.5-.3-1-.5-1.7-.5-.5 0-.8.1-1.1.3-.3.2-.4.5-.4.8 0 .3.1.6.3.7.2.2.6.5 1.3.8.7.4 1.3.7 1.6 1.1.3.4.4.8.4 1.2 0 .7-.2 1.2-.7 1.5-.5.4-1.2.5-2 .5-.3 0-.6 0-1-.1s-.7-.2-.9-.3V48zm10.1 1.4h-1v-.8c-.4.7-.9 1-1.7 1-1.3 0-1.9-.8-1.9-2.3V44h.9v3.1c0 1.1.4 1.6 1.3 1.6.4 0 .8-.2 1-.5.3-.3.4-.7.4-1.2v-3h1v5.4zm5-.2c-.4.2-.9.4-1.5.4-.8 0-1.4-.3-1.9-.8s-.7-1.2-.7-1.9c0-.9.3-1.6.8-2.1s1.2-.8 2.1-.8c.5 0 .9.1 1.3.3v.9c-.4-.3-.8-.4-1.3-.4s-1 .2-1.3.6c-.3.4-.5.9-.5 1.5s.2 1.1.5 1.5.8.5 1.3.5.9-.2 1.3-.5v.8zm4.6 0c-.4.2-.9.4-1.5.4-.8 0-1.4-.3-1.9-.8s-.7-1.2-.7-1.9c0-.9.3-1.6.8-2.1s1.2-.8 2.1-.8c.5 0 .9.1 1.3.3v.9c-.4-.3-.8-.4-1.3-.4s-1 .2-1.3.6c-.3.4-.5.9-.5 1.5s.2 1.1.5 1.5.8.5 1.3.5.9-.2 1.3-.5v.8zm5.3-2.2h-3.8c0 .6.2 1 .5 1.3.3.3.7.5 1.3.5.6 0 1.2-.2 1.7-.6v.9c-.5.3-1.1.5-1.9.5-.8 0-1.4-.2-1.8-.7s-.7-1.2-.7-2.1c0-.8.2-1.5.7-2 .5-.5 1.1-.8 1.8-.8s1.3.2 1.7.7c.4.5.6 1.1.6 1.9v.4zm-1-.8c0-.5-.1-.9-.3-1.1-.2-.3-.5-.4-1-.4-.4 0-.7.1-1 .4-.3.3-.5.7-.5 1.1h2.8zm1.6 2.1c.5.3 1 .5 1.6.5.7 0 1.1-.2 1.1-.7 0-.2-.1-.4-.2-.5-.2-.1-.5-.3-1-.5-.6-.2-1-.5-1.2-.7-.2-.2-.3-.5-.3-.9 0-.5.2-.9.6-1.2.4-.3.9-.4 1.5-.4.5 0 .9.1 1.3.2v.9c-.4-.3-.9-.4-1.4-.4-.3 0-.6.1-.7.2-.2.1-.3.3-.3.5s.1.4.2.5.4.3.9.5c.6.2 1 .5 1.2.7.2.2.3.5.3.9 0 .5-.2.9-.6 1.2-.4.3-.9.4-1.6.4-.6 0-1-.1-1.5-.3v-.9zm4.2 0c.5.3 1 .5 1.6.5.7 0 1.1-.2 1.1-.7 0-.2-.1-.4-.2-.5-.2-.1-.5-.3-1-.5-.6-.2-1-.5-1.2-.7-.2-.2-.3-.5-.3-.9 0-.5.2-.9.6-1.2.4-.3.9-.4 1.5-.4.5 0 .9.1 1.3.2v.9c-.4-.3-.9-.4-1.4-.4-.3 0-.6.1-.7.2-.2.1-.3.3-.3.5s.1.4.2.5.4.3.9.5c.6.2 1 .5 1.2.7.2.2.3.5.3.9 0 .5-.2.9-.6 1.2-.4.3-.9.4-1.6.4-.6 0-1-.1-1.5-.3v-.9z"/></svg>