<svg version="1.1" id="图层_1" xmlns="http://www.w3.org/2000/svg" x="0" y="0" viewBox="0 0 225 50.8" xml:space="preserve"><style type="text/css">.st0{fill:#329fd9}.st1{fill:#454545}.st2{fill:#646464}</style><path class="st0" d="M34.8 29.9c-3.3 0-6.3-1.2-8.7-3.1 1.7-1.9 3-4.2 3.6-6.7 1.2 1.5 3.1 2.4 5.1 2.4 3.7 0 6.7-3.1 6.7-6.9s-3-6.9-6.7-6.9c-2 0-3.9.9-5.1 2.4-.7-2.5-2-4.8-3.6-6.7 2.4-2 5.4-3.1 8.7-3.1 7.8 0 14 6.4 14 14.4.1 7.7-6.2 14.2-14 14.2z"/><path class="st0" d="M29.2 15.5h-9.5C19.7 6.9 26.4 0 34.8 0v9.8c-3.1 0-5.6 2.5-5.6 5.7z"/><path class="st1" d="M14 8.6c-3.7 0-6.7 3.1-6.7 6.9s3 6.9 6.7 6.9c2 0 3.9-.9 5.1-2.4.7 2.5 2 4.8 3.6 6.7-2.4 2-5.4 3.1-8.7 3.1-7.8 0-14-6.4-14-14.4C0 7.6 6.3 1.1 14 1.1c3.3 0 6.3 1.2 8.7 3.1-1.7 1.9-3 4.2-3.6 6.7-1.2-1.4-3-2.3-5.1-2.3z"/><path class="st1" d="M14 31v-9.8c3.1 0 5.6-2.6 5.6-5.7h9.5C29.2 24.1 22.4 31 14 31zm118.6-6.2V8.6h-1.7V6.4h4.2v18.5zM71.2 11.3c-.8-.9-1.9-1.6-3.2-1.8-3.3-.7-6.4 1.5-7.1 4.9-.6 3.3 1.5 6.6 4.8 7.2 1.3.3 2.5.1 3.6-.4.3.9.9 1.9 1.5 2.7-1.7.8-3.6 1.2-5.6.8-4.9-1-8.1-5.8-7.1-10.8s5.7-8.2 10.6-7.3c2 .4 3.7 1.4 4.9 2.9-.9.3-1.8 1.1-2.4 1.8zm32.4 13.5v-7.5c0-1.4-.2-2.5-.6-3.1s-1.1-1-2-1c-.8 0-1.5.4-2 1.2-.6.8-.8 1.8-.8 2.9v7.5h-2.8V17c0-2.6-.9-3.9-2.7-3.9-.8 0-1.5.4-2 1.2s-.8 1.8-.8 3v7.5h-2.7V11h2.7v2.2h.1c1-1.7 2.4-2.5 4.3-2.5.9 0 1.7.3 2.4.8s.9 1.2 1.1 2.1c1-1.9 2.5-2.9 4.5-2.9 3 0 4.2 1.9 4.2 5.6v8.5h-2.9zm22.1 0v-7.5c0-1.4-.2-2.5-.6-3.1s-1.1-1-2-1c-.8 0-1.5.4-2 1.2-.6.8-.8 1.8-.8 2.9v7.5h-2.8V17c0-2.6-.9-3.9-2.7-3.9-.8 0-1.5.4-2 1.2s-.8 1.8-.8 3v7.5h-2.7V11h2.7v2.2h.1c1-1.7 2.4-2.5 4.3-2.5.9 0 1.7.3 2.4.8s.9 1.2 1.1 2.1c1-1.9 2.5-2.9 4.5-2.9 3 0 4.2 1.9 4.2 5.6v8.5h-2.9z"/><path class="st1" d="M78.3 10.9c-3.7 0-6.7 3.1-6.7 6.9s3 6.9 6.7 6.9 6.7-3.1 6.7-6.9-2.9-6.9-6.7-6.9zm0 11.3c-2.4 0-4.3-2-4.3-4.4s1.9-4.4 4.3-4.4 4.3 2 4.3 4.4c0 2.4-1.9 4.4-4.3 4.4zm66.1-15.7c-2.7 0-6.2 1.8-6.2 9.2 0 7.4 3.8 9.2 6.2 9.2 2.8 0 6.2-1.8 6.2-9.2 0-7.4-3.5-9.2-6.2-9.2zm0 16c-2.1 0-3.6-2.1-3.6-6.8s1.5-6.8 3.6-6.8 3.6 2.1 3.6 6.8c0 4.6-1.5 6.8-3.6 6.8zm20.6-6.9c0-7.4-3.5-9.2-6.2-9.2s-6.2 1.8-6.2 9.2c0 7.4 3.8 9.2 6.2 9.2 2.8.1 6.2-1.8 6.2-9.2 0 .1 0 .1 0 0zm-6.2 6.9c-2.1 0-3.6-2.1-3.6-6.8s1.5-6.8 3.6-6.8 3.6 2.1 3.6 6.8c0 4.6-1.5 6.8-3.6 6.8zm14.3 2.2v-10h1.4v8.9h3.9v1.1h-5.3zm6.5 0v-7.4h1.4v7.4h-1.4zm0-10.7h1.4v1.3h-1.4V14zm6.1 10.7h-1.2l-2.3-7.4h1.5l1.3 5.2.1.6.1-.6 1.3-5.2h1.4l-2.2 7.4zm4.4-3.4v.3c0 .6.1 1.2.4 1.6.3.4.7.6 1.2.6.4 0 .7-.1 1-.2s.5-.3.8-.5l.5.9c-.2.3-.6.5-.9.6-.4.2-.9.3-1.4.3-.9 0-1.6-.3-2.1-.9s-.8-1.4-.8-2.3v-1.1c0-1 .3-1.8.8-2.4s1.2-.9 2-.9 1.5.3 2 .9.7 1.3.7 2.3v1h-4.2v-.2zm2.6-1.3c0-.5-.1-1-.3-1.3s-.5-.5-.9-.5-.7.2-1 .6c-.2.4-.4.9-.4 1.5h2.6V20zm10.6-2.2c0-.7-.2-1.3-.4-1.6-.3-.3-.7-.5-1.3-.5s-1 .2-1.3.7c-.3.5-.5 1.1-.5 2v2.8c0 .9.2 1.5.5 2s.8.7 1.4.7c.6 0 1-.2 1.3-.5s.4-.9.4-1.6h1.3c0 1-.3 1.8-.8 2.3s-1.3.8-2.3.8-1.8-.3-2.4-1c-.6-.7-.9-1.6-.9-2.7v-2.8c0-1.2.3-2.1.9-2.8.6-.7 1.4-1 2.3-1 1 0 1.7.3 2.3.8.5.5.8 1.3.8 2.3h-1.3v.1zm6.6 6.9v-4.5c0-.7-.1-1.2-.3-1.5s-.5-.4-.9-.4c-.3 0-.5.1-.8.2-.2.2-.4.4-.6.7v5.5H206V14h1.4v4.3c.2-.4.5-.6.8-.8.3-.2.6-.3 1-.3.7 0 1.2.2 1.6.7.4.5.6 1.2.6 2.3v4.5h-1.5zm6.8 0c-.1-.2-.1-.3-.1-.5s-.1-.3-.1-.5c-.2.3-.5.6-.8.8-.3.2-.7.3-1 .3-.6 0-1.1-.2-1.5-.6s-.5-.9-.5-1.6.2-1.3.7-1.7c.5-.4 1.2-.6 2.1-.6h1v-.8c0-.4-.1-.8-.3-1-.2-.3-.5-.4-.9-.4-.3 0-.6.1-.8.3-.2.2-.3.5-.3.8h-1.3c0-.6.2-1.1.7-1.5s1.1-.7 1.9-.7c.7 0 1.3.2 1.8.6s.7 1 .7 1.8v3.4c0 .3 0 .6.1.8 0 .3.1.5.2.8h-1.6v.3zm-.2-3.4h-1.1c-.4 0-.8.1-1 .4s-.4.6-.4 1c0 .3.1.6.2.8.2.2.4.3.7.3s.6-.1.9-.3c.3-.2.5-.4.6-.7v-1.5h.1zm5 2.2c.1.2.3.2.5.2h.3c.1 0 .2 0 .3-.1l.1 1c-.2.1-.3.1-.5.2-.2 0-.4.1-.6.1-.5 0-.9-.2-1.2-.5s-.4-.9-.4-1.6v-4.4h-1v-1h1v-1.8h1.4v1.8h1.2v1h-1.2v4.4c-.1.3-.1.6.1.7z"/><path class="st2" d="M3.1 48.7v-7.1c-.2.2-.4.3-.8.6-.4.2-.8.3-1.1.4v-1c.4-.2.8-.4 1.4-.6s.9-.5 1.2-.8h.4v8.5H3.1zm4.7-4c0-1.5.2-2.6.7-3.3s1.2-1.1 2.1-1.1c1.8 0 2.6 1.4 2.6 4.3 0 1.4-.2 2.5-.7 3.2-.5.7-1.2 1.1-2.1 1.1-.8 0-1.5-.4-2-1.1-.3-.7-.6-1.7-.6-3.1zm1.1 0c0 2.2.6 3.3 1.7 3.3s1.7-1.1 1.7-3.4-.5-3.5-1.6-3.5c-1.2 0-1.8 1.2-1.8 3.6zm6.2 0c0-1.5.2-2.6.7-3.3s1.2-1.1 2.1-1.1c1.8 0 2.6 1.4 2.6 4.3 0 1.4-.2 2.5-.7 3.2-.5.7-1.2 1.1-2.1 1.1-.8 0-1.5-.4-2-1.1-.3-.7-.6-1.7-.6-3.1zm1.1 0c0 2.2.6 3.3 1.7 3.3s1.7-1.1 1.7-3.4-.5-3.5-1.6-3.5c-1.2 0-1.8 1.2-1.8 3.6zm6.3-2.2c0-.7.2-1.2.5-1.6.4-.4.9-.6 1.5-.6s1.1.2 1.4.6c.3.4.5.9.5 1.5 0 .7-.2 1.2-.5 1.6s-.9.6-1.5.6-1-.2-1.4-.6c-.4-.4-.5-.9-.5-1.5zm.8-.1c0 .5.1.8.3 1.1.2.3.5.4.8.4.4 0 .6-.1.8-.4.2-.3.3-.6.3-1.1 0-.5-.1-.8-.3-1.1-.2-.3-.5-.4-.8-.4-.4 0-.6.1-.8.4-.2.3-.3.7-.3 1.1zm6.7-2l-5.3 8.4h-.9l5.3-8.4h.9zm-2.6 6.4c0-.7.2-1.2.5-1.6.4-.4.9-.6 1.5-.6s1 .2 1.4.6c.3.4.5.9.5 1.6 0 .7-.2 1.2-.6 1.6s-.9.6-1.4.6c-.6 0-1-.2-1.4-.6-.3-.5-.5-1-.5-1.6zm.9-.1c0 .5.1.8.3 1.1.2.3.5.4.8.4.4 0 .6-.1.8-.4.2-.3.3-.6.3-1.1 0-.5-.1-.8-.3-1.1-.2-.2-.5-.4-.8-.4-.4 0-.6.1-.8.4-.2.3-.3.6-.3 1.1zm15.3 1.7c-.6.3-1.4.5-2.3.5-1.2 0-2.1-.4-2.9-1.1-.7-.8-1.1-1.8-1.1-3 0-1.3.4-2.4 1.2-3.2s1.8-1.2 3.1-1.2c.8 0 1.5.1 2 .3v1.1c-.6-.3-1.2-.5-2-.5-.9 0-1.7.3-2.3.9-.6.6-.9 1.5-.9 2.5s.3 1.8.8 2.4c.5.6 1.3.9 2.1.9s1.5-.2 2.1-.6v1zm2-2.6c0-1 .3-1.8.8-2.3s1.3-.9 2.2-.9c.9 0 1.6.3 2.1.8s.8 1.3.8 2.3c0 .9-.3 1.7-.8 2.3-.5.6-1.3.9-2.2.9-.9 0-1.6-.3-2.1-.8s-.8-1.4-.8-2.3zm1 0c0 .7.2 1.2.5 1.6.3.4.8.6 1.4.6.6 0 1.1-.2 1.4-.6s.5-.9.5-1.7c0-.7-.2-1.3-.5-1.7s-.8-.6-1.4-.6c-.6 0-1.1.2-1.4.6-.3.5-.5 1.1-.5 1.8zm15.8 2.9h-1.1v-3.4c0-.6-.1-1.1-.3-1.4s-.5-.4-1-.4c-.4 0-.7.2-1 .5-.3.4-.4.8-.4 1.3v3.4h-1.1v-3.5c0-1.1-.4-1.7-1.3-1.7-.4 0-.7.2-1 .5-.3.3-.4.8-.4 1.3v3.4h-1.1v-5.9h1.1v.9c.4-.7 1-1.1 1.9-1.1.4 0 .7.1 1.1.3.3.2.5.5.6.9.4-.8 1.1-1.2 2-1.2 1.3 0 2 .8 2 2.4v3.7zm11.2 0h-1.1v-3.4c0-.6-.1-1.1-.3-1.4s-.5-.4-1-.4c-.4 0-.7.2-1 .5-.3.4-.4.8-.4 1.3v3.4h-1.1v-3.5c0-1.1-.4-1.7-1.3-1.7-.4 0-.7.2-1 .5-.3.3-.4.8-.4 1.3v3.4h-1v-5.9h1.1v.9c.4-.7 1-1.1 1.9-1.1.4 0 .7.1 1.1.3.3.2.5.5.6.9.4-.8 1.1-1.2 2-1.2 1.3 0 2 .8 2 2.4v3.7zm7.5 0H80v-.9c-.4.7-1 1.1-1.8 1.1-1.4 0-2.1-.8-2.1-2.5v-3.6h1v3.4c0 1.2.5 1.8 1.4 1.8.5 0 .8-.2 1.1-.5.3-.3.4-.8.4-1.3v-3.4h1.1v5.9zm7.8 0h-1v-3.4c0-1.2-.4-1.8-1.3-1.8-.5 0-.8.2-1.1.5s-.4.8-.4 1.3v3.4H84v-5.9h1.1v1c.4-.7 1.1-1.1 1.9-1.1.7 0 1.1.2 1.5.6s.5 1 .5 1.8v3.6zm2.5-8c0-.2.1-.3.2-.5.1-.1.3-.2.5-.2s.4.1.5.2c.1.1.2.3.2.5s-.1.3-.2.5c-.1.1-.3.2-.5.2s-.3-.1-.5-.2c-.1-.2-.2-.3-.2-.5zm.1 8v-5.9h1.1v5.9h-1.1zm7.9-.3c-.5.3-1 .4-1.6.4-.9 0-1.6-.3-2.1-.8s-.8-1.3-.8-2.1c0-1 .3-1.8.8-2.4.6-.6 1.3-.9 2.3-.9.5 0 1 .1 1.4.3v1c-.4-.3-.9-.5-1.4-.5-.6 0-1.1.2-1.5.6-.4.4-.6 1-.6 1.7s.2 1.2.5 1.6c.4.4.8.6 1.4.6.5 0 1-.2 1.5-.5v1zm2.5-5.2c.6-.4 1.3-.6 2-.6 1.4 0 2.1.8 2.1 2.3v3.8h-1v-.9c-.4.7-1 1.1-1.8 1.1-.6 0-1-.2-1.4-.5-.3-.3-.5-.7-.5-1.3 0-1.1.7-1.8 2-1.9l1.8-.2c0-1-.4-1.5-1.2-1.5-.7 0-1.4.2-1.9.7v-1zm1.7 2.7c-.5.1-.8.2-1 .4-.2.2-.3.4-.3.8 0 .3.1.5.3.7.2.2.5.3.8.3.5 0 .8-.2 1.1-.5s.4-.7.4-1.2v-.6l-1.3.1zm8 2.7c-.2.1-.5.2-.9.2-1.1 0-1.6-.6-1.6-1.8v-3.4h-1v-.9h1v-1.4l1-.3v1.8h1.5v.9h-1.5v3.2c0 .4.1.7.2.8s.4.3.7.3c.2 0 .4-.1.6-.2v.8zm1.9-7.9c0-.2.1-.3.2-.5s.3-.2.5-.2.3.1.5.2.2.3.2.5-.1.3-.2.5c-.1.1-.3.2-.5.2s-.3-.1-.5-.2c-.1-.2-.2-.3-.2-.5zm.2 8v-5.9h1.1v5.9h-1.1zm3.4-2.9c0-1 .3-1.8.8-2.3s1.3-.9 2.2-.9c.9 0 1.6.3 2.1.8s.8 1.3.8 2.3c0 .9-.3 1.7-.8 2.3-.5.6-1.3.9-2.2.9-.9 0-1.6-.3-2.1-.8-.5-.7-.8-1.4-.8-2.3zm1.1 0c0 .7.2 1.2.5 1.6s.8.6 1.4.6c.6 0 1.1-.2 1.4-.6.3-.4.5-.9.5-1.7 0-.7-.2-1.3-.5-1.7-.3-.4-.8-.6-1.4-.6-.6 0-1.1.2-1.4.6-.4.5-.5 1.1-.5 1.8zm12.2 2.9h-1v-3.4c0-1.2-.4-1.8-1.3-1.8-.5 0-.8.2-1.1.5s-.4.8-.4 1.3v3.4h-1.1v-5.9h1.1v1c.4-.7 1.1-1.1 2-1.1.7 0 1.1.2 1.5.6.3.4.5 1 .5 1.8v3.6zm3.6-1.3l-.9 2.9h-.8l.7-2.9h1zm8.8 1.3v-7.1c-.2.2-.4.3-.8.6-.4.2-.8.3-1.1.4v-1c.4-.1.9-.3 1.4-.6.5-.3.9-.5 1.2-.8h.4v8.5h-1.1zm4.8-4c0-1.5.2-2.6.7-3.3.5-.8 1.2-1.1 2.1-1.1 1.8 0 2.6 1.4 2.6 4.3 0 1.4-.2 2.5-.7 3.2s-1.2 1.1-2.1 1.1c-.8 0-1.5-.4-2-1.1-.4-.7-.6-1.7-.6-3.1zm1 0c0 2.2.6 3.3 1.7 3.3s1.7-1.1 1.7-3.4-.5-3.5-1.6-3.5c-1.2 0-1.8 1.2-1.8 3.6zm6.3 0c0-1.5.2-2.6.7-3.3.5-.8 1.2-1.1 2.1-1.1 1.8 0 2.6 1.4 2.6 4.3 0 1.4-.2 2.5-.7 3.2s-1.2 1.1-2.1 1.1c-.8 0-1.5-.4-2-1.1-.4-.7-.6-1.7-.6-3.1zm1.1 0c0 2.2.6 3.3 1.7 3.3s1.7-1.1 1.7-3.4-.5-3.5-1.6-3.5c-1.3 0-1.8 1.2-1.8 3.6zm6.2-2.2c0-.7.2-1.2.5-1.6s.9-.6 1.5-.6 1.1.2 1.4.6c.3.4.5.9.5 1.5 0 .7-.2 1.2-.5 1.6s-.9.6-1.5.6-1-.2-1.4-.6c-.3-.4-.5-.9-.5-1.5zm.8-.1c0 .5.1.8.3 1.1.2.3.5.4.8.4.4 0 .6-.1.8-.4s.3-.6.3-1.1c0-.5-.1-.8-.3-1.1-.2-.3-.5-.4-.8-.4-.4 0-.6.1-.8.4-.2.3-.3.7-.3 1.1zm6.7-2l-5.3 8.4h-.9l5.3-8.4h.9zm-2.5 6.4c0-.7.2-1.2.5-1.6s.9-.6 1.5-.6 1 .2 1.4.6c.3.4.5.9.5 1.6 0 .7-.2 1.2-.6 1.6s-.9.6-1.4.6c-.6 0-1-.2-1.4-.6s-.5-1-.5-1.6zm.8-.1c0 .5.1.8.3 1.1.2.3.5.4.8.4.4 0 .6-.1.8-.4s.3-.6.3-1.1c0-.5-.1-.8-.3-1.1-.2-.2-.5-.4-.8-.4-.4 0-.6.1-.8.4-.2.3-.3.6-.3 1.1zm9.2.4c.3.2.6.4 1 .5.4.1.8.2 1.2.2 1.2 0 1.8-.4 1.8-1.2 0-.2-.1-.4-.2-.6-.1-.2-.3-.4-.5-.5-.2-.1-.6-.4-1.2-.7-.8-.4-1.4-.8-1.6-1.2-.3-.4-.4-.8-.4-1.2 0-.7.3-1.2.8-1.6s1.3-.6 2.1-.6 1.4.1 1.8.3v1.2c-.5-.3-1.1-.5-1.9-.5-.5 0-.9.1-1.2.3s-.5.5-.5.9c0 .3.1.6.3.8.2.2.7.5 1.4.9.8.4 1.4.8 1.7 1.2.3.4.5.8.5 1.3 0 .7-.3 1.3-.8 1.7-.5.4-1.3.6-2.2.6-.3 0-.7 0-1.2-.1-.4-.1-.8-.2-1-.3v-1.4zm12.4 1.6h-1.1v-.9c-.4.7-1 1.1-1.8 1.1-1.4 0-2.1-.8-2.1-2.5v-3.6h1v3.4c0 1.2.5 1.8 1.4 1.8.5 0 .8-.2 1.1-.5.3-.3.4-.8.4-1.3v-3.4h1.1v5.9zm6.9-.3c-.5.3-1 .4-1.6.4-.9 0-1.6-.3-2.1-.8-.5-.6-.8-1.3-.8-2.1 0-1 .3-1.8.8-2.4.6-.6 1.3-.9 2.3-.9.5 0 1 .1 1.4.3v1c-.4-.3-.9-.5-1.4-.5-.6 0-1.1.2-1.5.6s-.6 1-.6 1.7.2 1.2.5 1.6.8.6 1.4.6c.5 0 1-.2 1.4-.5v1zm6.4 0c-.5.3-1 .4-1.6.4-.9 0-1.6-.3-2.1-.8-.5-.6-.8-1.3-.8-2.1 0-1 .3-1.8.8-2.4.6-.6 1.3-.9 2.3-.9.5 0 1 .1 1.4.3v1c-.4-.3-.9-.5-1.4-.5-.6 0-1.1.2-1.5.6s-.6 1-.6 1.7.2 1.2.5 1.6.8.6 1.4.6c.5 0 1-.2 1.4-.5v1zM210 46h-4.2c0 .6.2 1.1.5 1.5.3.3.8.5 1.4.5.7 0 1.3-.2 1.8-.6v.9c-.5.4-1.2.6-2.1.6-.9 0-1.5-.3-2-.8s-.7-1.3-.7-2.3c0-.9.3-1.7.8-2.3.5-.6 1.2-.9 2-.9s1.4.3 1.8.7c.4.5.7 1.2.7 2.1v.6zm-1.1-.8c0-.5-.1-1-.4-1.2-.3-.3-.6-.4-1.1-.4-.4 0-.8.2-1.1.5-.3.3-.5.7-.6 1.2h3.2zm3 2.2c.5.4 1.1.6 1.7.6.8 0 1.2-.3 1.2-.8 0-.2-.1-.4-.3-.6-.2-.1-.5-.3-1.1-.5-.7-.3-1.1-.5-1.3-.8-.2-.3-.3-.6-.3-.9 0-.5.2-.9.7-1.3.4-.3 1-.5 1.6-.5.5 0 1 .1 1.4.3v1c-.4-.3-.9-.4-1.5-.4-.3 0-.6.1-.8.2-.2.1-.3.3-.3.6 0 .2.1.4.2.6s.5.3 1 .5c.7.2 1.1.5 1.3.8.2.3.3.6.3 1 0 .5-.2 1-.7 1.3-.4.3-1 .5-1.7.5-.6 0-1.2-.1-1.6-.3v-1.3zm6 0c.5.4 1.1.6 1.7.6.8 0 1.2-.3 1.2-.8 0-.2-.1-.4-.3-.6-.2-.1-.5-.3-1.1-.5-.7-.3-1.1-.5-1.3-.8-.2-.3-.3-.6-.3-.9 0-.5.2-.9.7-1.3.4-.3 1-.5 1.6-.5.5 0 1 .1 1.4.3v1c-.4-.3-.9-.4-1.5-.4-.3 0-.6.1-.8.2-.2.1-.3.3-.3.6 0 .2.1.4.2.6s.5.3 1 .5c.7.2 1.1.5 1.3.8.2.3.3.6.3 1 0 .5-.2 1-.7 1.3-.4.3-1 .5-1.7.5-.6 0-1.2-.1-1.6-.3v-1.3z"/></svg>