<svg version="1.1" id="图层_1" xmlns="http://www.w3.org/2000/svg" x="0" y="0" width="291.533" height="53.579" viewBox="0 0 291.533 53.579" xml:space="preserve"><path fill="#329ED8" d="M61.516 1.983V0c-14.793 0-26.79 11.997-26.79 26.787h16.867c0-5.476 4.444-9.919 9.923-9.919v-1.982c6.576 0 11.906 5.33 11.906 11.901 0 6.582-5.33 11.912-11.906 11.912a11.876 11.876 0 0 1-9.011-4.131 28.74 28.74 0 0 1-6.447 11.618 24.722 24.722 0 0 0 15.458 5.409c13.701 0 24.804-11.104 24.804-24.809-.001-13.693-11.103-24.803-24.804-24.803z"/><path fill="#FFF" d="M34.726 26.787c0 5.486-4.443 9.925-9.92 9.925v1.987c-6.579 0-11.908-5.33-11.908-11.912 0-6.571 5.329-11.901 11.908-11.901 3.601 0 6.823 1.604 9.009 4.126a28.776 28.776 0 0 1 6.447-11.614 24.705 24.705 0 0 0-15.456-5.414C11.104 1.983 0 13.093 0 26.792s11.104 24.804 24.806 24.804v1.983c14.791 0 26.787-11.992 26.787-26.792H34.726z"/><g fill="#FFF"><path d="M138.396 18.844c-6.585 0-11.922 5.336-11.922 11.919 0 6.584 5.337 11.926 11.922 11.926s11.921-5.342 11.921-11.926c0-6.583-5.336-11.919-11.921-11.919zm0 19.477a7.559 7.559 0 0 1-7.558-7.56 7.554 7.554 0 0 1 7.558-7.552 7.553 7.553 0 0 1 7.556 7.552 7.557 7.557 0 0 1-7.556 7.56zm92.844-23.392h3.006v27.976l4.406.051V11.125l-7.412-.05z"/><path d="M115.952 37.183c-5.766-1.133-9.521-6.722-8.393-12.49 1.131-5.762 6.721-9.521 12.486-8.393a10.56 10.56 0 0 1 5.693 3.162c1.071-1.139 2.752-2.475 4.161-3.298a15.768 15.768 0 0 0-8.729-4.974c-8.613-1.688-16.966 3.927-18.656 12.539-1.687 8.617 3.928 16.969 12.542 18.658 3.514.688 6.974.141 9.965-1.311-1.001-1.296-2.074-3.154-2.646-4.654a10.55 10.55 0 0 1-6.423.761zm72.013 5.722h-4.888V29.901c0-2.5-.353-4.308-1.059-5.427-.707-1.119-1.9-1.679-3.575-1.679-1.415 0-2.616.709-3.604 2.123-.983 1.412-1.477 3.106-1.477 5.078v12.908h-4.888V29.461c0-4.442-1.568-6.665-4.706-6.665-1.458 0-2.66.67-3.6 2.005-.94 1.337-1.408 3.069-1.408 5.196v12.908h-4.841V19.046h4.841v3.775h.091c1.725-2.889 4.231-4.334 7.526-4.334 1.647 0 3.088.454 4.32 1.363 1.236.908 1.538 2.102 1.987 3.576 1.769-3.293 4.413-4.939 7.921-4.939 5.25 0 7.357 3.24 7.357 9.716v14.702zm39.066 0h-4.887V29.901c0-2.5-.354-4.308-1.061-5.427-.706-1.119-1.899-1.679-3.574-1.679-1.416 0-2.614.709-3.602 2.123-.985 1.412-1.479 3.106-1.479 5.078v12.908h-4.887V29.461c0-4.442-1.569-6.665-4.706-6.665-1.46 0-2.659.67-3.597 2.005-.944 1.337-1.41 3.069-1.41 5.196v12.908h-4.841V19.046h4.841v3.775h.09c1.725-2.889 4.233-4.334 7.526-4.334 1.646 0 3.086.454 4.323 1.363 1.233.908 1.536 2.102 1.983 3.576 1.771-3.293 4.413-4.939 7.923-4.939 5.247 0 7.355 3.24 7.355 9.716v14.702zm39.036-15.881c-.026-12.722-6.217-15.861-10.903-15.861-4.691 0-10.88 3.14-10.905 15.861v.068c.025 12.723 6.684 15.863 10.905 15.863 4.946 0 10.877-3.141 10.903-15.863v-.068zm-10.903 11.83c-3.741 0-6.34-3.687-6.348-11.794.008-8.109 2.606-11.795 6.348-11.795 3.739 0 6.337 3.686 6.345 11.795-.008 8.107-2.606 11.794-6.345 11.794zm36.369-11.83h-.002c-.022-12.722-6.215-15.861-10.903-15.861-4.687 0-10.878 3.14-10.902 15.861h-.002v.068h.002c.024 12.723 6.681 15.863 10.902 15.863 4.949 0 10.881-3.141 10.903-15.863h.002v-.068zm-10.905 11.83c-3.739 0-6.338-3.687-6.346-11.794.008-8.109 2.606-11.795 6.346-11.795 3.743 0 6.338 3.686 6.346 11.795-.008 8.107-2.603 11.794-6.346 11.794z"/></g></svg>