<?xml version="1.0" encoding="utf-8"?>
<!-- Generator: Adobe Illustrator 23.0.4, SVG Export Plug-In . SVG Version: 6.00 Build 0)  -->
<svg version="1.1" id="Layer_1" xmlns="http://www.w3.org/2000/svg" xmlns:xlink="http://www.w3.org/1999/xlink" x="0px" y="0px"
	 viewBox="0 0 33 33" style="enable-background:new 0 0 33 33;" xml:space="preserve">
<style type="text/css">
	.st0{fill:#A1CD3A;}
</style>
<g>
	<path class="st0" d="M6.9,32.3c-0.2,0-0.4,0-0.6-0.1c-0.7-0.2-1.1-0.8-1.1-1.6v-6.4H3.5c-1.6,0-3-1.4-3-3.1V5.3
		c0-1.7,1.3-3.1,3-3.1h26.1c1.6,0,3,1.4,3,3.1V21c0,1.7-1.3,3.1-3,3.1H14.2l-6,7.5C7.9,32,7.4,32.3,6.9,32.3z M3.5,4.2
		c-0.6,0-1,0.5-1,1.1v15.8c0,0.6,0.5,1.1,1,1.1h3.7v7.4l6-7.5h16.4c0.6,0,1-0.5,1-1.1V5.3c0-0.6-0.5-1.1-1-1.1
		C29.5,4.2,3.5,4.2,3.5,4.2z"/>
</g>
</svg>
