<?xml version="1.0" encoding="utf-8"?>
<!-- Generator: Adobe Illustrator 23.0.4, SVG Export Plug-In . SVG Version: 6.00 Build 0)  -->
<svg version="1.1" id="Layer_1" xmlns="http://www.w3.org/2000/svg" xmlns:xlink="http://www.w3.org/1999/xlink" x="0px" y="0px"
	 viewBox="0 0 28 33" style="enable-background:new 0 0 28 33;" xml:space="preserve">
<style type="text/css">
	.st0{fill:#56C0EE;}
</style>
<path class="st0" d="M24.1,32.5c-4.5,0-11.1-2.6-17.3-9.9C0.3,14.4-0.7,7,0.5,2.7l0.1-0.5L1.1,2c2.8-1.2,6.8-1.1,8.7-0.7l0.4,0.1
	l0.2,0.4c1.6,2.6,2.5,6.6,2,9.5l-0.1,0.3L12,11.8c-0.6,0.6-2,1.4-3,2c0.4,1.1,1.4,2.6,2.8,4.4c1.5,1.8,2.7,3,3.7,3.6
	c0.7-0.9,1.8-2,2.5-2.5l0.3-0.2h0.4c2.9,0.1,6.6,1.7,8.9,3.8l0.3,0.3v0.4c0,2-0.7,5.9-2.4,8.4l-0.3,0.4h-0.5
	C24.7,32.5,24.4,32.5,24.1,32.5z M2.4,3.7C2,5.8,1.3,12.5,8.3,21.3c7.3,8.6,13.9,9.2,16,9.2c1.2-2,1.7-4.9,1.8-6.4
	c-1.9-1.6-4.7-2.8-6.9-3c-0.7,0.6-1.8,1.9-2.3,2.5l-0.4,0.7L15.7,24c-1.5-0.6-3.2-2.1-5.2-4.6s-3.2-4.4-3.4-6L7,12.6l0.8-0.3
	c0.7-0.3,2.2-1.2,2.9-1.7c0.2-2.2-0.4-5.3-1.6-7.4C7.5,2.9,4.6,2.9,2.4,3.7z"/>
</svg>
