<?xml version="1.0" encoding="utf-8"?>
<!-- Generator: Adobe Illustrator 23.0.0, SVG Export Plug-In . SVG Version: 6.00 Build 0)  -->
<svg version="1.1" id="图层_1" xmlns="http://www.w3.org/2000/svg" xmlns:xlink="http://www.w3.org/1999/xlink" x="0px" y="0px"
	 viewBox="0 0 13 13" style="enable-background:new 0 0 13 13;" xml:space="preserve">
<style type="text/css">
	.st0{fill:#3DC4FF;}
</style>
<path class="st0" d="M8.3,9.5c-2.6,0-4.7-2.1-4.7-4.7S5.6,0,8.3,0C10.9,0,13,2.1,13,4.8S10.9,9.5,8.3,9.5z M8.3,0.8
	c-2.2,0-3.9,1.8-3.9,3.9c0,2.2,1.8,3.9,3.9,3.9s3.9-1.8,3.9-3.9C12.2,2.6,10.4,0.8,8.3,0.8z"/>
<path class="st0" d="M0.5,12.7c-0.1,0-0.3,0-0.4-0.1C0,12.3,0,12,0.2,11.8l4.5-4.5c0.2-0.2,0.5-0.2,0.7,0s0.2,0.5,0,0.7l-4.5,4.5
	C0.8,12.6,0.6,12.7,0.5,12.7z"/>
</svg>
