<svg version="1.1" baseProfile="tiny" id="Isolation_Mode" xmlns="http://www.w3.org/2000/svg" x="0" y="0" viewBox="0 0 82 48" xml:space="preserve"><g fill="#0094D4"><path d="M58.86 47.86v-4.09c.18 0 .36.01.54.01 12.04 0 21.81-9.76 21.81-21.81C81.21 9.93 71.45.16 59.4.16c-.18 0-.36.01-.54.01-13.17 0-23.85 10.68-23.85 23.85.01 13.16 10.68 23.84 23.85 23.84z"/><path d="M31.53 24.01c0-7.12 2.9-13.56 7.59-18.21C35.25 2.31 30.15.16 24.53.16c-.18 0-.36.01-.54.01C10.82.17.14 10.85.14 24.02s10.68 23.85 23.85 23.85v-4.09c.18 0 .36.01.54.01 4.65 0 8.94-1.46 12.48-3.94a25.553 25.553 0 0 1-5.48-15.84z"/></g></svg>